<?xml version="1.0" standalone="no"?>
<!DOCTYPE svg PUBLIC "-//W3C//DTD SVG 20010904//EN"
 "http://www.w3.org/TR/2001/REC-SVG-20010904/DTD/svg10.dtd">
<svg version="1.0" xmlns="http://www.w3.org/2000/svg"
 width="795.000000pt" height="328.000000pt" viewBox="0 0 795.000000 328.000000"
 preserveAspectRatio="xMidYMid meet">

<g transform="translate(0.000000,328.000000) scale(0.100000,-0.100000)"
fill="#000000" stroke="none">
<path d="M5695 3143 c-22 -8 -75 -23 -118 -32 -68 -15 -87 -15 -150 -4 -40 7
-85 10 -102 7 -116 -23 -400 -239 -675 -514 -81 -80 -105 -113 -161 -215 -36
-66 -69 -133 -73 -150 -4 -16 -20 -75 -36 -130 -28 -95 -62 -310 -52 -329 6
-11 56 75 72 125 7 21 26 53 41 71 l28 33 -6 -35 c-15 -80 3 -435 30 -590 1
-8 18 53 36 135 19 83 37 159 42 170 14 35 10 -200 -5 -272 -8 -37 -17 -95
-21 -128 -4 -33 -18 -82 -32 -110 -14 -27 -26 -66 -26 -86 0 -39 76 -305 122
-424 14 -38 57 -119 94 -178 37 -60 67 -113 65 -118 -2 -6 -35 -24 -73 -42
-95 -44 -132 -68 -184 -121 -36 -37 -45 -54 -52 -98 -6 -38 -15 -59 -34 -73
-14 -12 -25 -24 -25 -28 0 -4 36 -7 80 -7 l79 0 7 49 c5 43 14 56 63 103 55
55 166 138 183 138 4 0 9 -12 9 -27 1 -17 3 -21 6 -10 6 23 17 22 37 -6 13
-19 15 -19 9 -2 -9 26 -65 123 -123 210 -98 149 -151 264 -180 385 -7 30 -26
87 -41 127 -16 39 -29 81 -29 94 0 12 13 63 29 113 16 50 32 120 36 156 10 92
19 99 35 28 12 -55 12 -75 -3 -163 -18 -104 -21 -172 -11 -199 10 -26 22 -18
16 10 -6 31 18 237 27 228 3 -3 13 -30 21 -60 9 -31 20 -56 25 -57 5 -1 20 46
34 106 13 59 27 107 31 107 11 0 20 -187 14 -265 -6 -65 -5 -68 9 -49 21 27
23 107 7 271 -19 205 -14 240 53 374 61 122 143 250 166 257 11 4 13 -6 9 -47
-5 -55 -2 -61 18 -34 12 16 13 13 14 -23 0 -26 -11 -62 -30 -100 -16 -32 -39
-104 -51 -159 -24 -115 -21 -196 11 -289 14 -43 21 -94 24 -193 3 -75 7 -138
10 -140 13 -13 18 61 12 168 -7 127 3 192 45 293 11 27 30 83 41 125 11 42 24
81 30 88 13 17 48 17 49 1 0 -7 3 -22 6 -33 12 -41 -2 -296 -22 -385 -3 -15 1
-46 10 -71 9 -24 24 -78 32 -119 8 -41 20 -86 26 -100 6 -14 11 -43 12 -65 0
-35 4 -41 33 -55 19 -9 49 -40 73 -75 54 -80 121 -213 114 -225 -4 -6 -2 -10
4 -10 23 0 31 -142 11 -206 -7 -21 -25 -52 -40 -69 -15 -16 -31 -39 -34 -50
-3 -11 -27 -31 -53 -45 -27 -14 -55 -30 -63 -37 -8 -6 -42 -22 -75 -34 -33
-12 -54 -24 -48 -26 15 -5 121 36 204 80 65 34 115 74 105 84 -3 3 -15 -2 -26
-12 -11 -10 -20 -14 -20 -8 0 11 42 53 53 53 11 0 7 -61 -8 -125 -8 -33 -15
-63 -15 -67 0 -5 25 -8 55 -8 30 0 55 3 55 6 0 13 32 199 36 213 3 11 10 9 29
-9 22 -20 25 -32 27 -114 l3 -91 33 -3 c37 -4 39 1 13 34 -14 18 -18 34 -14
58 8 50 -13 101 -56 135 -57 45 -86 49 -122 15 -34 -32 -34 -31 -14 26 8 23
15 69 15 101 0 66 12 80 43 51 42 -37 67 -45 134 -38 48 5 63 3 64 -6 0 -7 2
-72 2 -145 2 -113 0 -128 -11 -107 -11 21 -32 33 -32 19 0 -3 19 -37 42 -75
24 -42 48 -70 58 -70 18 0 102 76 119 108 6 12 11 35 11 52 0 24 7 35 30 48
37 21 39 35 3 26 -26 -7 -27 -6 -13 11 8 10 66 61 128 113 264 220 339 320
433 576 16 44 29 91 29 105 l0 24 23 -21 c32 -31 37 -28 37 21 0 57 11 117 21
117 4 0 13 -17 18 -37 6 -21 27 -76 47 -123 20 -47 38 -92 40 -100 3 -8 -34
-119 -82 -245 -48 -127 -107 -284 -131 -350 -38 -101 -110 -290 -121 -317 -2
-4 345 -8 772 -8 l776 0 0 240 0 239 -37 10 c-21 5 -67 17 -103 26 -204 52
-513 177 -647 261 -33 22 -93 59 -133 83 -40 25 -78 57 -86 72 -8 16 -35 40
-62 55 -26 15 -64 37 -84 50 -21 13 -53 24 -72 24 -29 0 -36 4 -45 31 -6 18
-11 40 -11 49 0 10 -9 29 -20 43 -21 26 -25 77 -10 112 8 18 9 18 9 -4 1 -15
5 -21 10 -15 13 13 68 199 76 257 8 53 25 64 25 15 0 -51 17 -69 24 -27 3 19
13 79 23 134 13 72 17 147 16 268 -1 93 2 166 5 162 4 -4 21 -46 39 -93 38
-103 39 -89 13 117 -34 260 -70 378 -145 476 -47 61 -147 178 -229 266 -34 36
-77 84 -97 106 -20 23 -60 54 -90 69 -47 24 -66 28 -144 28 -50 0 -107 -5
-128 -13 -37 -12 -41 -12 -85 18 -69 45 -183 101 -207 101 -11 -1 -38 -8 -60
-17z m55 -1423 c90 -99 146 -165 159 -188 19 -34 24 0 12 85 -14 105 -23 209
-18 203 67 -74 152 -181 166 -208 10 -21 25 -62 34 -92 8 -30 24 -86 36 -125
11 -38 25 -101 31 -140 20 -120 21 -123 30 -100 4 11 11 44 15 73 4 28 10 52
14 52 10 0 27 -96 42 -227 l12 -102 -28 -58 c-53 -108 -367 -398 -514 -472
-130 -67 -226 16 -409 355 -8 15 -22 24 -36 24 -35 0 -47 20 -36 61 21 72 5
298 -22 324 -7 7 -9 -2 -4 -30 12 -73 17 -242 7 -220 -5 11 -10 32 -10 47 -1
15 -11 60 -24 100 -13 40 -22 82 -22 93 4 67 4 66 24 53 11 -7 17 -17 14 -23
-4 -5 -2 -6 3 -2 5 5 9 21 9 37 0 16 -2 26 -4 24 -2 -2 -10 1 -18 7 -14 12
-17 104 -4 148 6 22 10 19 48 -40 44 -68 99 -127 109 -117 3 4 -2 53 -11 110
-9 56 -18 175 -19 263 l-3 160 18 -41 c11 -23 65 -88 130 -154 113 -115 120
-129 60 -130 -17 0 -22 -3 -15 -10 14 -14 197 -15 221 -1 20 11 16 12 -42 15
-16 1 -35 5 -41 9 -6 3 -15 52 -19 109 -3 57 -13 137 -21 178 -20 105 -18 109
17 70 17 -19 66 -73 109 -120z m-688 -78 c27 -56 27 -58 12 -110 -12 -40 -20
-52 -32 -50 -14 3 -17 20 -20 111 -1 59 1 107 5 107 4 0 20 -26 35 -58z m1500
21 c22 -25 42 -156 34 -232 -4 -50 -14 -79 -44 -130 -22 -36 -51 -87 -66 -114
-31 -55 -66 -81 -96 -72 -37 12 -14 104 34 137 52 36 86 71 86 90 0 24 -22 14
-43 -21 -9 -16 -26 -31 -38 -34 -20 -5 -21 -3 -14 51 9 73 19 88 25 38 3 -22
11 -42 19 -44 21 -7 8 85 -14 102 -22 16 -16 48 22 105 31 48 47 51 67 14 13
-25 15 -26 22 -9 8 22 -3 43 -33 63 -20 13 -24 12 -44 -11 -31 -36 -39 -33
-32 12 8 49 29 72 68 72 18 0 39 -8 47 -17z m-1519 -219 c3 -3 3 -13 0 -21 -5
-12 -7 -12 -14 -1 -15 23 -4 40 14 22z m-43 -124 c0 -48 -16 -42 -28 11 -17
74 -15 89 8 51 11 -18 20 -46 20 -62z m1419 -237 c29 6 30 5 41 -46 6 -29 17
-65 25 -80 13 -25 12 -33 -2 -70 -9 -23 -21 -45 -27 -49 -6 -4 -8 -8 -3 -8 12
0 -75 -159 -111 -201 -22 -26 -38 -36 -50 -33 -14 5 -15 4 -2 -5 12 -9 -1 -26
-80 -101 -52 -49 -101 -88 -108 -85 -7 3 -10 1 -7 -5 3 -5 -32 -41 -79 -81
-87 -74 -89 -78 -102 -174 -2 -19 -21 -47 -52 -78 l-48 -48 -22 86 c-21 85
-21 86 -2 128 23 50 25 85 6 112 -36 53 -33 59 73 131 88 59 253 208 344 311
48 55 91 135 121 226 23 73 30 86 42 76 8 -6 27 -9 43 -6z m117 -42 c-9 -31
-11 -33 -14 -12 -5 34 7 78 17 62 5 -7 3 -30 -3 -50z m-968 -822 c1 -13 -4
-58 -11 -99 l-13 -75 -22 43 c-26 50 -25 111 3 142 23 25 39 21 43 -11z"/>
<path d="M5410 1515 c0 -8 5 -26 12 -40 9 -19 18 -25 42 -24 28 0 29 1 9 9
-12 5 -29 23 -38 39 -17 34 -25 39 -25 16z"/>
<path d="M5775 1479 c-9 -13 -6 -15 33 -24 25 -5 32 -3 32 8 0 24 -52 37 -65
16z"/>
<path d="M5983 1483 c9 -2 23 -2 30 0 6 3 -1 5 -18 5 -16 0 -22 -2 -12 -5z"/>
<path d="M5898 1473 c6 -2 18 -2 25 0 6 3 1 5 -13 5 -14 0 -19 -2 -12 -5z"/>
<path d="M5890 1298 c-14 -5 -74 -11 -135 -12 -93 -1 -110 -4 -113 -17 -4 -20
42 -28 131 -24 78 4 197 35 197 52 0 16 -44 16 -80 1z"/>
<path d="M5430 694 c0 -27 52 -58 108 -65 82 -10 225 -10 241 0 20 13 7 37
-31 58 -27 15 -57 18 -175 18 -95 0 -143 -4 -143 -11z m306 -25 l29 -12 -40
-8 c-59 -12 -246 4 -230 19 19 19 195 20 241 1z"/>
<path d="M5648 663 c7 -3 16 -2 19 1 4 3 -2 6 -13 5 -11 0 -14 -3 -6 -6z"/>
<path d="M5610 545 c0 -8 9 -15 20 -15 24 0 27 15 4 24 -22 9 -24 8 -24 -9z"/>
<path d="M1063 2383 c-44 -60 -405 -572 -772 -1097 -69 -99 -125 -181 -123
-183 1 -2 183 -5 405 -6 l402 -2 3 -198 2 -197 85 0 85 0 0 200 0 200 103 0
102 0 0 80 0 80 -102 0 -103 0 0 595 c0 578 -1 595 -19 595 -12 0 -37 -25 -68
-67z m-83 -768 l0 -355 -251 0 c-138 0 -249 4 -247 8 5 12 491 702 495 702 2
0 3 -160 3 -355z"/>
<path d="M1910 2427 c-216 -73 -350 -265 -395 -562 -20 -132 -20 -486 0 -615
56 -373 258 -590 549 -590 156 0 263 44 372 154 79 79 123 150 160 258 43 121
55 203 61 413 9 306 -19 480 -105 655 -45 91 -161 214 -239 254 -121 61 -284
74 -403 33z m310 -174 c184 -90 280 -329 280 -698 0 -369 -98 -621 -274 -703
-209 -98 -420 9 -515 262 -61 165 -70 601 -15 821 43 174 161 309 301 345 62
15 160 4 223 -27z"/>
<path d="M3703 2383 c-44 -60 -405 -572 -772 -1097 -69 -99 -125 -181 -123
-183 1 -2 183 -5 405 -6 l402 -2 3 -198 2 -197 85 0 85 0 0 200 0 200 103 0
102 0 0 80 0 80 -102 0 -103 0 0 595 c0 578 -1 595 -19 595 -12 0 -37 -25 -68
-67z m-83 -768 l0 -355 -251 0 c-138 0 -249 4 -247 8 5 12 491 702 495 702 2
0 3 -160 3 -355z"/>
<path d="M4941 1674 c0 -11 3 -14 6 -6 3 7 2 16 -1 19 -3 4 -6 -2 -5 -13z"/>
<path d="M7108 1399 c-28 -16 -22 -32 8 -25 20 5 31 1 50 -19 26 -28 54 -27
83 1 21 19 4 31 -21 15 -19 -12 -24 -11 -41 13 -19 27 -49 33 -79 15z"/>
<path d="M7491 1387 c-6 -6 -11 -17 -11 -24 0 -20 24 -16 37 6 10 15 9 20 -1
24 -8 3 -19 0 -25 -6z"/>
<path d="M7298 1358 c-9 -7 -18 -24 -20 -38 -2 -16 -11 -26 -27 -30 -14 -3
-26 -11 -29 -18 -5 -17 43 -16 102 2 45 14 47 14 32 -3 -9 -10 -16 -26 -16
-36 0 -16 7 -17 60 -12 53 4 59 3 49 -9 -21 -25 4 -40 46 -27 19 6 35 7 35 3
0 -5 -21 -26 -46 -49 -54 -48 -101 -62 -120 -36 -13 18 -44 15 -44 -4 0 -15
34 -31 64 -31 53 0 104 32 180 112 50 52 74 84 68 90 -6 6 -32 8 -59 4 -26 -3
-55 -6 -63 -7 -8 -1 -34 -7 -58 -15 -75 -24 -81 -17 -28 31 28 25 47 48 43 52
-4 3 -41 -5 -82 -20 -58 -20 -75 -23 -75 -12 0 32 13 45 47 45 20 0 32 4 28
10 -9 14 -68 12 -87 -2z m254 -125 c-29 -14 -56 -23 -59 -20 -9 10 61 47 87
46 20 -1 14 -6 -28 -26z"/>
<path d="M7734 1302 c-50 -37 -164 -149 -164 -162 0 -13 27 -13 35 0 7 12 50
34 85 45 l25 7 -27 -29 c-37 -39 -37 -63 1 -63 36 0 61 9 61 21 0 5 -11 7 -25
3 -37 -9 -31 9 15 49 22 19 40 37 40 42 0 8 -63 1 -95 -11 -17 -6 -17 -4 5 20
14 16 44 41 68 58 23 16 40 33 37 39 -9 14 -19 11 -61 -19z"/>
<path d="M4731 1194 c0 -11 3 -14 6 -6 3 7 2 16 -1 19 -3 4 -6 -2 -5 -13z"/>
<path d="M5380 601 c0 -6 4 -13 10 -16 6 -3 7 1 4 9 -7 18 -14 21 -14 7z"/>
<path d="M2520 365 c-13 -16 -6 -35 15 -35 15 0 28 27 19 41 -8 13 -20 11 -34
-6z"/>
<path d="M1879 313 c0 -32 -4 -82 -8 -110 -6 -46 -5 -53 10 -53 13 0 18 14 23
73 4 39 10 89 13 110 5 33 3 37 -16 37 -19 0 -21 -6 -22 -57z"/>
<path d="M3482 340 c-9 -16 -23 -30 -29 -30 -7 0 -13 -7 -13 -15 0 -8 6 -15
14 -15 12 0 13 -12 9 -57 -3 -32 -11 -72 -18 -89 -17 -41 -5 -62 20 -35 12 14
20 46 26 98 4 43 8 79 8 81 1 1 7 2 15 2 8 0 16 7 20 15 4 10 -1 15 -14 15
-28 0 -25 19 5 30 32 12 32 30 0 30 -18 0 -31 -9 -43 -30z"/>
<path d="M4180 335 c0 -33 -1 -34 -30 -28 -39 7 -75 -24 -85 -74 -11 -61 41
-109 75 -68 7 8 16 15 21 15 5 0 9 -7 9 -15 0 -8 7 -15 15 -15 12 0 15 14 15
68 1 37 5 86 9 110 7 37 6 42 -10 42 -15 0 -19 -8 -19 -35z m-10 -84 c0 -37
-31 -77 -53 -68 -37 14 -13 97 28 97 21 0 25 -5 25 -29z"/>
<path d="M277 353 c-2 -5 -8 -52 -11 -105 l-7 -98 41 0 c55 0 94 22 114 64 27
58 15 114 -31 135 -27 12 -100 15 -106 4z m95 -40 c41 -37 5 -133 -50 -133
-26 0 -27 2 -24 43 6 90 12 107 34 107 12 0 30 -7 40 -17z"/>
<path d="M1094 338 c-3 -12 -13 -29 -21 -36 -9 -10 -11 -17 -4 -21 5 -4 11
-33 13 -66 3 -59 4 -60 32 -60 16 0 31 6 34 13 2 7 -5 12 -17 12 -18 0 -21 6
-21 50 0 43 3 50 20 50 11 0 20 7 20 15 0 8 -7 15 -16 15 -12 0 -15 7 -12 25
7 32 -18 34 -28 3z"/>
<path d="M3284 338 c-3 -12 -13 -29 -21 -36 -9 -10 -11 -17 -4 -21 5 -4 11
-33 13 -66 3 -59 4 -60 32 -60 16 0 31 6 34 13 2 7 -5 12 -17 12 -18 0 -21 6
-21 50 0 43 3 50 20 50 11 0 20 7 20 15 0 8 -7 15 -16 15 -12 0 -15 7 -12 25
7 32 -18 34 -28 3z"/>
<path d="M479 281 c-65 -65 -7 -163 72 -121 30 16 23 27 -17 26 -46 -1 -56 19
-13 28 41 8 59 23 59 50 0 52 -56 61 -101 17z m71 -16 c0 -15 -46 -32 -57 -21
-10 9 18 36 38 36 11 0 19 -7 19 -15z"/>
<path d="M637 290 c-42 -34 -44 -105 -3 -132 21 -14 65 -8 75 10 8 15 4 17
-27 17 -35 0 -37 2 -40 33 -4 42 12 62 49 62 19 0 29 5 29 15 0 22 -52 19 -83
-5z"/>
<path d="M769 281 c-65 -65 -7 -163 72 -121 30 16 23 27 -17 26 -46 -1 -56 19
-13 28 41 8 59 23 59 50 0 52 -56 61 -101 17z m71 -16 c0 -15 -46 -32 -57 -21
-10 9 18 36 38 36 11 0 19 -7 19 -15z"/>
<path d="M898 230 c-3 -69 -1 -80 13 -80 12 0 18 13 21 51 6 55 27 85 53 75
15 -5 17 -15 11 -66 -6 -49 -4 -60 7 -60 20 0 27 22 27 84 0 72 -30 97 -72 59
-17 -15 -18 -15 -18 0 0 10 -8 17 -19 17 -17 0 -20 -9 -23 -80z"/>
<path d="M1287 290 c-42 -34 -44 -105 -3 -132 21 -14 65 -8 75 10 8 15 4 17
-27 17 -35 0 -37 2 -40 33 -4 42 12 62 49 62 19 0 29 5 29 15 0 22 -52 19 -83
-5z"/>
<path d="M1426 288 c-37 -32 -43 -76 -16 -111 26 -32 58 -35 93 -7 31 25 43
70 26 102 -24 45 -63 51 -103 16z m69 -52 c0 -42 -20 -64 -49 -53 -10 4 -16
18 -16 40 0 39 17 59 45 55 16 -2 20 -11 20 -42z"/>
<path d="M1588 299 c-29 -16 -22 -57 12 -77 42 -24 40 -45 -4 -40 -27 3 -36 0
-39 -14 -4 -15 1 -18 30 -18 75 0 99 50 43 92 -38 28 -38 41 0 36 26 -4 40 6
40 28 0 8 -66 3 -82 -7z"/>
<path d="M1700 256 c0 -29 -3 -81 -6 -115 -6 -52 -5 -61 10 -61 10 0 16 8 16
24 0 41 9 53 36 48 49 -9 98 69 79 127 -9 29 -51 38 -75 16 -18 -16 -20 -17
-20 -2 0 10 -8 17 -20 17 -18 0 -20 -7 -20 -54z m98 -14 c4 -40 -12 -62 -46
-62 -23 0 -24 3 -19 36 11 69 59 88 65 26z"/>
<path d="M2013 299 c-58 -17 -89 -81 -63 -130 13 -23 37 -24 62 -2 17 15 18
15 18 0 0 -10 8 -17 20 -17 18 0 20 7 20 64 0 35 3 71 6 80 7 18 -12 20 -63 5z
m27 -47 c0 -51 -49 -95 -64 -57 -7 18 10 66 27 77 24 15 37 8 37 -20z"/>
<path d="M2121 240 c24 -83 22 -112 -8 -125 -25 -11 -31 -35 -10 -35 26 0 47
26 83 105 56 123 56 125 36 125 -12 0 -22 -17 -36 -63 l-19 -62 -9 40 c-5 22
-11 50 -14 63 -3 13 -12 22 -23 22 -19 0 -19 -1 0 -70z"/>
<path d="M2330 256 c0 -29 -3 -81 -6 -115 -6 -52 -5 -61 10 -61 10 0 16 8 16
24 0 41 9 53 36 48 49 -9 98 69 79 127 -9 29 -51 38 -75 16 -18 -16 -20 -17
-20 -2 0 10 -8 17 -20 17 -18 0 -20 -7 -20 -54z m98 -14 c4 -40 -12 -62 -46
-62 -23 0 -24 3 -19 36 11 69 59 88 65 26z"/>
<path d="M2509 288 c0 -13 -4 -49 -8 -80 -6 -52 -5 -58 11 -58 13 0 18 8 18
28 0 15 3 51 6 80 6 44 4 52 -10 52 -10 0 -16 -9 -17 -22z"/>
<path d="M2607 290 c-42 -34 -44 -105 -3 -132 21 -14 65 -8 75 10 8 15 4 17
-27 17 -35 0 -37 2 -40 33 -4 42 12 62 49 62 19 0 29 5 29 15 0 22 -52 19 -83
-5z"/>
<path d="M2738 299 c-29 -16 -22 -57 12 -77 42 -24 40 -45 -4 -40 -27 3 -36 0
-39 -14 -4 -15 1 -18 30 -18 75 0 99 50 43 92 -38 28 -38 41 0 36 26 -4 40 6
40 28 0 8 -66 3 -82 -7z"/>
<path d="M2918 230 c-3 -69 -1 -80 13 -80 12 0 18 13 21 51 6 55 27 85 53 75
15 -5 17 -15 11 -66 -6 -49 -4 -60 7 -60 20 0 27 22 27 84 0 72 -30 97 -72 59
-17 -15 -18 -15 -18 0 0 10 -8 17 -19 17 -17 0 -20 -9 -23 -80z"/>
<path d="M3116 288 c-37 -32 -43 -76 -16 -111 26 -32 58 -35 93 -7 31 25 43
70 26 102 -24 45 -63 51 -103 16z m69 -52 c0 -42 -20 -64 -49 -53 -10 4 -16
18 -16 40 0 39 17 59 45 55 16 -2 20 -11 20 -42z"/>
<path d="M3586 288 c-37 -32 -43 -76 -16 -111 26 -32 58 -35 93 -7 31 25 43
70 26 102 -24 45 -63 51 -103 16z m69 -52 c0 -42 -20 -64 -49 -53 -10 4 -16
18 -16 40 0 39 17 59 45 55 16 -2 20 -11 20 -42z"/>
<path d="M3736 294 c-11 -28 -6 -120 6 -132 17 -17 38 -15 60 5 17 15 18 15
18 0 0 -10 8 -17 19 -17 17 0 20 9 23 80 3 69 1 80 -13 80 -12 0 -18 -13 -21
-51 -6 -55 -27 -85 -53 -75 -15 5 -17 15 -11 66 6 49 4 60 -7 60 -8 0 -18 -7
-21 -16z"/>
<path d="M3898 230 c-3 -69 -1 -80 13 -80 12 0 18 13 21 51 6 55 27 85 53 75
15 -5 17 -15 11 -66 -6 -49 -4 -60 7 -60 20 0 27 22 27 84 0 72 -30 97 -72 59
-17 -15 -18 -15 -18 0 0 10 -8 17 -19 17 -17 0 -20 -9 -23 -80z"/>
<path d="M6105 220 c17 -19 17 -23 -9 -105 -15 -47 -29 -92 -32 -100 -5 -13
11 -15 110 -15 l116 0 -37 61 c-42 67 -139 179 -155 179 -6 0 -3 -9 7 -20z"/>
<path d="M4792 177 c-34 -83 -63 -170 -57 -175 8 -8 9 -5 49 112 39 115 44
150 8 63z"/>
<path d="M4610 114 c0 -14 81 -114 92 -114 10 0 -13 33 -61 90 -17 19 -31 30
-31 24z"/>
<path d="M5936 37 c-5 -15 -6 -31 -2 -34 11 -11 18 5 14 34 l-4 28 -8 -28z"/>
</g>
</svg>
